# OBJ file building_4_5_2.5_2.5.obj
# 10 vertices
v 0.0000 0.0000 0.0000
v 0.0000 5.0000 0.0000
v 2.5000 0.0000 0.0000
v 2.5000 5.0000 0.0000
v 0.0000 0.0000 2.5000
v 0.0000 5.0000 2.5000
v -2.5000 0.0000 0.0000
v -2.5000 5.0000 0.0000
v -0.0000 0.0000 -2.5000
v -0.0000 5.0000 -2.5000
# 16 normals
vn 0.0000 -1.0000 0.0000
vn 0.0000 1.0000 0.0000
vn 0.7071 0.0000 0.7071
vn -0.7071 0.0000 -0.7071
vn 0.0000 -1.0000 0.0000
vn 0.0000 1.0000 0.0000
vn -0.7071 0.0000 0.7071
vn 0.7071 0.0000 -0.7071
vn 0.0000 -1.0000 0.0000
vn 0.0000 1.0000 0.0000
vn -0.7071 0.0000 -0.7071
vn 0.7071 0.0000 0.7071
vn 0.0000 -1.0000 0.0000
vn 0.0000 1.0000 0.0000
vn 0.7071 0.0000 -0.7071
vn -0.7071 0.0000 0.7071
# 16 faces
f 3//1 5//1 1//1
f 4//2 2//2 6//2
f 3//3 4//3 5//3
f 4//4 5//4 6//4
f 5//5 7//5 1//5
f 6//6 2//6 8//6
f 5//7 6//7 7//7
f 6//8 7//8 8//8
f 7//9 9//9 1//9
f 8//10 2//10 10//10
f 7//11 8//11 9//11
f 8//12 9//12 10//12
f 9//13 3//13 1//13
f 10//14 2//14 4//14
f 9//15 10//15 3//15
f 10//16 3//16 4//16

